<svg viewBox="0 0 1600 900" preserveAspectRatio="xMidYMax slice" xmlns="http://www.w3.org/2000/svg"><defs><linearGradient id="g" x1="800" y1="50" x2="800" y2="900" gradientUnits="userSpaceOnUse"><stop stop-color="#77AF92" stop-opacity=".2"/><stop offset="1" stop-color="#2E765C" stop-opacity=".7"/></linearGradient></defs><path d="M0 530C93 486 182 514 270 485C354 456 402 506 498 475C615 438 687 500 788 468C887 437 954 490 1041 455C1166 406 1234 469 1335 442C1445 413 1514 445 1600 409V900H0V530Z" fill="url(#g)"/><g fill="#377A63" opacity=".65"><path d="M58 585V342l-86 150h53l-84 121h64l-81 137h288L131 613h64l-84-121h53L58 342v243Z"/><path d="M329 585V300l-110 180h67l-101 141h78l-104 149h340L407 621h78L384 480h67L329 300v285Z"/><path d="M666 570V355l-92 153h58l-86 120h68l-90 135h288L690 628h68l-86-120h58L666 355v215Z"/><path d="M1032 580V310l-112 184h69l-104 145h80l-107 151h350l-96-151h80l-104-145h69L1032 310v270Z"/><path d="M1414 570V333l-98 162h60l-91 128h71l-95 142h306l-82-142h71l-91-128h60l-98-162v237Z"/></g></svg>
