<svg viewBox="0 0 1600 900" preserveAspectRatio="xMidYMax slice" xmlns="http://www.w3.org/2000/svg"><g fill="#245E4C"><path d="M0 900V410C29 374 65 361 93 373C113 291 173 249 220 271C246 191 333 160 392 215C442 137 561 161 580 243C641 197 722 245 731 321C777 292 842 307 872 362V900H0Z"/><path d="M730 900V434C758 368 817 345 861 371C886 283 965 244 1026 287C1080 200 1192 220 1223 313C1282 270 1367 318 1365 393C1424 344 1506 370 1536 439V900H730Z"/></g><g fill="#3D8768" opacity=".9"><circle cx="148" cy="370" r="58"/><circle cx="235" cy="327" r="79"/><circle cx="332" cy="358" r="80"/><circle cx="495" cy="324" r="83"/><circle cx="586" cy="372" r="65"/><circle cx="891" cy="385" r="65"/><circle cx="1024" cy="336" r="85"/><circle cx="1169" cy="370" r="90"/><circle cx="1302" cy="340" r="75"/><circle cx="1464" cy="383" r="87"/></g></svg>
