<svg viewBox="0 0 1600 900" preserveAspectRatio="xMidYMax slice" xmlns="http://www.w3.org/2000/svg"><g fill="#173F37"><path d="M0 900V218C44 192 88 213 103 256C120 182 211 157 248 225C267 139 364 103 423 182C457 84 587 77 625 181C679 137 754 184 742 252C804 204 884 226 912 294V900H0Z"/><path d="M960 900V257C1008 208 1083 222 1105 286C1141 210 1237 202 1272 276C1311 182 1424 182 1455 277C1497 218 1571 251 1600 309V900H960Z"/></g><g fill="#2D6D53"><ellipse cx="80" cy="319" rx="95" ry="135"/><ellipse cx="267" cy="251" rx="102" ry="146"/><ellipse cx="458" cy="235" rx="117" ry="164"/><ellipse cx="642" cy="298" rx="102" ry="142"/><ellipse cx="1031" cy="326" rx="104" ry="143"/><ellipse cx="1205" cy="281" rx="119" ry="165"/><ellipse cx="1400" cy="305" rx="119" ry="154"/><ellipse cx="1580" cy="357" rx="97" ry="136"/></g><path d="M0 724C211 674 289 736 489 697C680 660 826 731 1000 691C1206 645 1390 735 1600 686V900H0V724Z" fill="#163F37"/></svg>
