<svg viewBox="0 0 700 760" fill="none" xmlns="http://www.w3.org/2000/svg"><defs><linearGradient id="body" x1="174" y1="160" x2="530" y2="617" gradientUnits="userSpaceOnUse"><stop stop-color="#FDFDF8"/><stop offset=".48" stop-color="#E8F3EF"/><stop offset="1" stop-color="#BEDFE2"/></linearGradient><linearGradient id="blue" x1="161" y1="260" x2="556" y2="581" gradientUnits="userSpaceOnUse"><stop stop-color="#95DCE7"/><stop offset=".5" stop-color="#59B5D1"/><stop offset="1" stop-color="#2F789B"/></linearGradient><linearGradient id="face" x1="202" y1="138" x2="505" y2="381" gradientUnits="userSpaceOnUse"><stop stop-color="#EFFFFB"/><stop offset="1" stop-color="#B2DDE6"/></linearGradient><filter id="shadow" x="60" y="70" width="590" height="625" filterUnits="userSpaceOnUse"><feDropShadow dx="0" dy="16" stdDeviation="13" flood-color="#154A5C" flood-opacity=".22"/></filter><filter id="glow" x="0" y="0" width="700" height="760" filterUnits="userSpaceOnUse"><feGaussianBlur stdDeviation="12"/></filter></defs><g filter="url(#shadow)"><ellipse cx="350" cy="686" rx="181" ry="27" fill="#164656" fill-opacity=".22"/><path d="M219 527C165 540 126 590 132 640C137 684 182 701 229 684L277 657L273 550L219 527Z" fill="url(#blue)"/><path d="M481 527C535 540 574 590 568 640C563 684 518 701 471 684L423 657L427 550L481 527Z" fill="url(#blue)"/><path d="M164 614C137 635 136 670 155 684C178 701 213 681 236 660L261 628L211 599L164 614Z" fill="#EAF8F6"/><path d="M536 614C563 635 564 670 545 684C522 701 487 681 464 660L439 628L489 599L536 614Z" fill="#EAF8F6"/><path d="M227 368C181 407 172 500 208 581C235 642 292 672 350 672C408 672 465 642 492 581C528 500 519 407 473 368C424 329 276 329 227 368Z" fill="url(#body)"/><path d="M241 397C210 437 211 510 230 560C253 619 296 642 350 642C404 642 447 619 470 560C489 510 490 437 459 397C417 364 283 364 241 397Z" fill="url(#blue)" opacity=".82"/><path d="M260 376C285 350 415 350 440 376L460 448C413 466 288 466 240 448L260 376Z" fill="#F8FDFB"/><path d="M250 475C276 493 424 493 450 475L470 560C447 619 404 642 350 642C296 642 253 619 230 560L250 475Z" fill="url(#body)"/><path d="M350 496L362 526L395 529L369 550L377 582L350 564L323 582L331 550L305 529L338 526L350 496Z" fill="#F4C660"/><circle cx="350" cy="545" r="64" fill="#F9D975" filter="url(#glow)" opacity=".26"/><path d="M228 348C199 326 187 280 197 225C207 169 259 123 350 123C441 123 493 169 503 225C513 280 501 326 472 348C429 380 271 380 228 348Z" fill="url(#face)"/><path d="M214 245C215 184 260 139 350 139C440 139 485 184 486 245C487 290 470 329 448 344C410 370 290 370 252 344C230 329 213 290 214 245Z" fill="#153A56"/><path d="M244 251C244 210 276 180 350 180C424 180 456 210 456 251C456 292 438 321 419 332C382 352 318 352 281 332C262 321 244 292 244 251Z" fill="#183E59"/><ellipse cx="294" cy="258" rx="30" ry="38" fill="#78ECF5"/><ellipse cx="406" cy="258" rx="30" ry="38" fill="#78ECF5"/><ellipse cx="301" cy="247" rx="10" ry="15" fill="#E9FFFF"/><ellipse cx="413" cy="247" rx="10" ry="15" fill="#E9FFFF"/><path d="M320 318C338 329 362 329 380 318" stroke="#A2F2F2" stroke-width="10" stroke-linecap="round"/><path d="M350 123V79" stroke="#D8F8F8" stroke-width="20" stroke-linecap="round"/><circle cx="350" cy="57" r="25" fill="#F3C85F"/><circle cx="350" cy="57" r="12" fill="#FFF4BF"/><path d="M216 362C181 379 165 425 179 459L203 505L252 481L248 413L216 362Z" fill="url(#blue)"/><path d="M484 362C519 379 535 425 521 459L497 505L448 481L452 413L484 362Z" fill="url(#blue)"/><path d="M183 458L206 512C216 536 244 547 267 536C289 525 294 497 279 478L248 436L183 458Z" fill="#E7F7F4"/><path d="M517 458L494 512C484 536 456 547 433 536C411 525 406 497 421 478L452 436L517 458Z" fill="#E7F7F4"/><path d="M278 654L246 698C235 714 249 733 269 729L328 716L331 663L278 654Z" fill="#D9F1EE"/><path d="M422 654L454 698C465 714 451 733 431 729L372 716L369 663L422 654Z" fill="#D9F1EE"/></g></svg>
